<svg width="500.00001" height="500.00001" xmlns="http://www.w3.org/2000/svg" version="1.1">

 <g>
  <title>Layer 1</title>
  <rect x="517" y="-20" id="svg_1" fill="#f8f6da" height="500" width="500"/>
  <rect x="529" id="svg_2" fill="#e1e1c0" height="126.02" width="500" y="201.98"/>
  <rect id="svg_134" height="1" width="0" y="312.66665" x="780.33495" fill="#e1e1c0"/>
  <g stroke="null" id="svg_135">
   <g stroke="null" id="svg_3" fill-rule="evenodd">
    <path stroke="null" id="svg_4" fill="#afaf91" d="m250.1843,1.85483l-191.75254,190.40103l0,293.95767l383.50509,0l0,-293.95767l-191.75254,-190.40103z"/>
    <path stroke="null" id="svg_5" fill="#d3d3a3" d="m250.1843,1.85483l-191.75254,190.40103l383.50509,0l-191.75254,-190.40103z"/>
   </g>
   <g stroke="#000" id="svg_6" stroke-width="1.1703px" stroke-opacity="0.34043" fill="none">
    <path stroke="null" id="svg_7" d="m80.5865,170.25726l0,311.6159"/>
    <path stroke="null" id="svg_8" d="m103.02146,147.98043l0,333.89273"/>
    <path stroke="null" id="svg_9" d="m125.47509,125.75925l0,356.11391"/>
    <path stroke="null" id="svg_10" d="m148.73198,102.59209l0,379.28107"/>
    <path stroke="null" id="svg_11" d="m171.16693,2.59677l0,479.27639"/>
    <path stroke="null" id="svg_12" d="m193.62057,58.01989l0,423.85327"/>
    <path stroke="null" id="svg_13" d="m216.05552,35.74306l0,446.1301"/>
    <path stroke="null" id="svg_14" d="m238.49047,13.44768l0,468.42547"/>
    <path stroke="null" id="svg_15" d="m260.94411,12.5388l0,469.33435"/>
    <path stroke="null" id="svg_16" d="m284.20099,35.63177l0,446.24139"/>
    <path stroke="null" id="svg_17" d="m306.65463,57.90859l0,423.96456"/>
    <path stroke="null" id="svg_18" d="m329.08958,80.20397l0,401.66919"/>
    <path stroke="null" id="svg_19" d="m351.52454,102.4808l0,379.39236"/>
    <path stroke="null" id="svg_20" d="m373.97817,124.75762l0,357.09698"/>
    <path stroke="null" id="svg_21" d="m396.41312,147.053l0,334.82016"/>
    <path stroke="null" id="svg_22" d="m419.67001,170.14596l0,311.72719"/>
   </g>
   <g stroke="null" id="svg_23" fill-opacity="0.14118">
    <rect stroke="null" id="svg_24" height="6.11546" width="72.41764" y="293.58667" x="111.50228"/>
    <rect stroke="null" id="svg_25" height="6.11546" width="72.41764" y="292.84473" x="316.44307"/>
    <rect stroke="null" id="svg_26" height="6.11546" width="131.18004" y="409.99747" x="261.39243"/>
    <rect stroke="null" id="svg_27" height="6.11546" width="108.11369" y="455.79387" x="243.25393"/>
   </g>
   <path stroke="null" id="svg_28" fill-rule="evenodd" fill="#cbb688" d="m327.24024,254.39355l0,39.34522l50.8289,0l0,-39.34522l-50.8289,0z"/>
   <path stroke="null" id="svg_29" fill-rule="evenodd" fill="#ded1b4" d="m122.29945,213.14154l0,80.319l50.8289,0l0,-80.319l-50.8289,0z"/>
   <path stroke="null" id="svg_30" fill-rule="evenodd" fill="#ded1b4" d="m274.97296,326.34344l0,80.319l104.52895,0l0,-80.319l-104.52895,0z"/>
   <rect stroke="null" id="svg_31" fill="#ce3333" height="121.31689" width="65.49475" y="330.16444" x="110.41883"/>
   <path stroke="null" id="svg_32" fill-rule="evenodd" fill="#b74a4a" d="m144.82781,24.1873l49.20933,0l0,33.41895l-49.20933,48.86434l0,-82.28329z"/>
   <rect stroke="null" id="svg_33" fill="#a79368" height="21.59053" width="65.49475" y="2.59677" x="136.68323"/>
   <ellipse stroke="null" id="svg_34" fill-opacity="0.14118" ry="35.19961" rx="37.4221" cy="118.58095" cx="250.1843"/>
   <circle stroke="null" id="svg_35" fill="#cbb688" r="34.61992" cy="113.83252" cx="250.1843"/>
   <path stroke="null" id="svg_36" fill-opacity="0.14118" d="m250.1843,76.97652a35.44947,35.19961 0 0 0 -35.44947,35.19961a35.44947,35.19961 0 0 0 0.22256,3.59731a35.44947,35.19961 0 0 1 35.22531,-31.37675a35.44947,35.19961 0 0 1 35.22531,31.6049a35.44947,35.19961 0 0 0 0.22256,-3.82564a35.44947,35.19961 0 0 0 -35.44947,-35.19961l0.00321,0.00019z"/>
   <rect stroke="null" id="svg_37" fill="#cbb688" height="17.36628" width="67.68034" y="451.47206" x="109.61558"/>
   <rect stroke="null" id="svg_38" fill="#cbb688" height="17.36628" width="67.68034" y="468.29561" x="109.61558"/>
   <path stroke="null" id="svg_39" fill-rule="evenodd" fill="#ded1b4" d="m327.24024,215.03349l0,39.34522l50.8289,0l0,-39.34522l-50.8289,0z"/>
   <path stroke="null" id="svg_40" fill-rule="evenodd" fill="#cbb688" d="m122.29945,254.39355l0,39.34522l50.8289,0l0,-39.34522l-50.8289,0z"/>
   <path stroke="null" id="svg_41" fill-rule="evenodd" fill="#cbb688" d="m274.97296,368.50432l0,40.01668l104.52895,0l0,-40.01668l-104.52895,0z"/>
   <rect stroke="null" id="svg_42" fill-opacity="0.14118" height="12.83728" width="446.17725" y="486.21352" x="27.08633"/>
   <rect stroke="null" id="svg_43" fill-opacity="0.14118" height="6.11546" width="70.41325" y="451.47206" x="108.23324"/>
   <rect stroke="null" id="svg_44" fill-opacity="0.14118" height="6.11546" width="70.41325" y="467.96173" x="107.97172"/>
   <rect stroke="null" id="svg_45" fill-opacity="0.14118" height="3.30183" width="100.15591" y="368.35594" x="277.15855"/>
   <rect stroke="null" id="svg_46" fill-opacity="0.14118" height="4.05917" width="49.6315" y="253.96693" x="327.83801"/>
   <rect stroke="null" id="svg_47" fill-opacity="0.14118" height="4.05917" width="49.6315" y="254.54194" x="121.53357"/>
   <rect stroke="null" id="svg_48" fill-opacity="0.14118" height="4.50749" width="70.89894" y="114.50027" x="214.72922"/>
   <rect stroke="null" id="svg_49" fill-opacity="0.14118" height="7.95047" width="53.23118" y="25.18892" x="142.0071"/>
   <rect stroke="null" id="svg_50" fill-opacity="0.14118" height="7.13063" width="378.66691" y="194.11071" x="61.06567"/>
   <path stroke="null" id="svg_51" fill-rule="evenodd" fill-opacity="0.14118" d="m72.12436,192.70102l185.75059,-184.44137l-8.57012,-4.91314l-188.3901,187.06228l11.20963,2.29223z"/>
   <rect stroke="null" id="svg_52" fill-opacity="0.14118" height="4.05917" width="68.89829" y="330.94348" x="107.44867"/>
   <path stroke="null" id="svg_53" fill-opacity="0.14118" d="m124.37296,340.4218l38.46633,0l-1.51711,2.52409l-36.11449,0l-0.83473,-2.52409z"/>
   <path stroke="null" id="svg_54" fill-opacity="0.14118" d="m124.46636,400.59334l38.46633,0l-1.51711,2.52409l-36.11449,0l-0.83473,-2.52409z"/>
   <path stroke="null" id="svg_55" fill-rule="evenodd" fill-opacity="0.14118" d="m137.69196,422.61049l7.23859,-7.18757l-1.98477,-1.79689l-7.58884,7.1297l2.33503,1.85476z"/>
   <path stroke="null" id="svg_56" fill-rule="evenodd" fill-opacity="0.14118" d="m137.4678,362.47604l7.23859,-7.18757l-1.98477,-1.79689l-7.58884,7.1297l2.33503,1.85476z"/>
   <rect stroke="null" id="svg_57" fill-opacity="0.14118" height="2.78228" width="28.13616" y="346.67266" x="128.98698"/>
   <rect stroke="null" id="svg_58" fill-opacity="0.14118" height="2.78228" width="28.13616" y="406.9555" x="129.0617"/>
   <path stroke="null" id="svg_59" fill-rule="evenodd" fill-opacity="0.14118" d="m129.04302,434.92674l-1.98477,2.70846l32.10758,0l-2.91879,-2.70846l-27.20402,0z"/>
   <path stroke="null" id="svg_60" fill-rule="evenodd" fill-opacity="0.14118" d="m128.93094,374.88503l-1.98477,2.70846l32.10758,0l-2.91879,-2.70846l-27.20402,0z"/>
   <g stroke="null" id="svg_61" fill-rule="evenodd" fill-opacity="0.14118">
    <path stroke="null" id="svg_62" d="m157.88529,409.73779l6.36286,-6.31801l-0.81726,-2.95627l-6.36286,6.78173l0.81726,2.49256z"/>
    <path stroke="null" id="svg_63" d="m158.22153,349.45495l6.36286,-6.31801l-0.81726,-2.95627l-6.36286,6.78173l0.81726,2.49256z"/>
   </g>
   <g stroke="null" id="svg_64" fill-rule="evenodd" fill-opacity="0.14118" transform="matrix(-1.86802 0 0 1.85486 719.992 0.04184)">
    <path stroke="null" id="svg_65" d="m316.66,220.89999l3.4062,-3.4062l-0.4375,-1.5938l-3.4062,3.6562l0.4375,1.3438z"/>
    <path stroke="null" id="svg_66" d="m316.84,188.39999l3.4062,-3.4062l-0.4375,-1.5938l-3.4062,3.6562l0.4375,1.3438z"/>
   </g>
   <rect stroke="null" id="svg_67" fill-opacity="0.14118" height="4.05917" width="49.6315" y="213.90203" x="327.83801"/>
   <rect stroke="null" id="svg_68" fill-opacity="0.14118" height="4.05917" width="49.6315" y="214.45849" x="121.53357"/>
   <rect stroke="null" id="svg_69" fill-opacity="0.14118" height="2.89821" width="92.93414" y="431.17993" x="250.6513"/>
   <rect stroke="null" id="svg_70" fill-opacity="0.14118" height="2.89821" width="92.93414" y="439.76791" x="250.6513"/>
   <rect stroke="null" id="svg_71" fill-opacity="0.14118" height="2.89821" width="92.93414" y="448.37445" x="250.6513"/>
   <rect stroke="null" id="svg_72" fill-opacity="0.14118" height="7.95047" width="63.79858" y="2.55967" x="136.73927"/>
   <g stroke="#2e2e2e" id="svg_73">
    <path stroke="null" id="svg_74" stroke-width="4.6813" fill="none" d="m441.93684,484.35869l0,-293.95767m-383.50509,0l0,293.95767"/>
    <path stroke="null" id="svg_75" stroke-width="4.6813" fill="none" d="m21.51962,227.05299l228.66467,-227.05299l228.66467,227.05299"/>
    <path stroke="null" id="svg_76" stroke-width="4.6813" fill="none" d="m0,484.35869l500.34992,0"/>
    <g stroke="null" id="svg_77" stroke-width="4" fill="none" transform="matrix(2.18615 0 0 2.17074 -79.32 -70.3788)">
     <path stroke="null" id="svg_78" d="m102.53031,42.69018l0,38.007"/>
     <path stroke="null" id="svg_79" d="m125.03031,42.69018l0,15.498"/>
    </g>
    <path stroke="null" id="svg_80" stroke-width="4.6813" fill="none" d="m206.54728,21.12682l-74.23896,0"/>
    <path stroke="null" id="svg_81" stroke-width="4.6813" fill="none" d="m136.68323,0.74194l0,21.59053"/>
    <path stroke="null" id="svg_82" stroke-width="4.6813" fill="none" d="m202.17611,0.74194l0,21.59053"/>
    <circle stroke="null" id="svg_83" stroke-width="2.3407" stroke-linejoin="round" stroke-linecap="round" fill="none" r="34.61992" cy="111.99624" cx="250.1843"/>
    <path stroke="null" id="svg_84" stroke-width="2.3407" fill="none" d="m250.1843,76.79106l0,70.39923"/>
    <path stroke="null" id="svg_85" stroke-width="2.3407" fill="none" d="m285.63937,111.99624l-70.89894,0"/>
    <path stroke="null" id="svg_86" stroke-width="2.3407" fill="none" d="m180.30156,466.99724l-74.23896,0"/>
    <path stroke="null" id="svg_87" stroke-width="2.3407" fill="none" d="m180.30156,449.63578l-74.23896,0"/>
    <path stroke="null" id="svg_88" stroke-width="2.3407" fill="none" d="m108.23324,449.63578l0,-121.31689"/>
    <path stroke="null" id="svg_89" stroke-width="2.3407" fill="none" d="m180.30156,328.30961l-74.23896,0"/>
    <path stroke="null" id="svg_90" stroke-width="2.3407" fill="none" d="m178.11598,449.63578l0,-121.31689"/>
    <rect stroke="null" id="svg_91" stroke-width="1.17" fill="none" height="41.44491" width="41.7391" y="338.0847" x="122.29945"/>
    <rect stroke="null" id="svg_92" stroke-width="1.1703" fill="none" height="28.0139" width="28.21275" y="344.79929" x="129.0617"/>
    <path stroke="null" id="svg_93" stroke-width="1.1703px" fill="none" d="m157.28752,372.80762l6.76318,6.71551"/>
    <path stroke="null" id="svg_94" stroke-width="1.1703px" fill="none" d="m157.28752,344.79929l6.76318,-6.71551"/>
    <path stroke="null" id="svg_95" stroke-width="1.1703px" fill="none" d="m129.0617,344.79929l-6.76318,-6.71551"/>
    <path stroke="null" id="svg_96" stroke-width="1.1703px" fill="none" d="m129.0617,372.80762l-6.76318,6.71551"/>
    <rect stroke="null" id="svg_97" stroke-width="1.1703" fill="none" height="41.44491" width="41.7391" y="398.42319" x="122.29945"/>
    <rect stroke="null" id="svg_98" stroke-width="1.1703" fill="none" height="28.0139" width="28.21275" y="405.13777" x="129.0617"/>
    <path stroke="null" id="svg_99" stroke-width="1.1703px" fill="none" d="m157.28752,433.1461l6.76318,6.71551"/>
    <path stroke="null" id="svg_100" stroke-width="1.1703px" fill="none" d="m157.28752,405.13777l6.76318,-6.71551"/>
    <path stroke="null" id="svg_101" stroke-width="1.1703px" fill="none" d="m129.0617,405.13777l-6.76318,-6.71551"/>
    <path stroke="null" id="svg_102" stroke-width="1.1703px" fill="none" d="m129.0617,433.1461l-6.76318,6.71551"/>
    <rect stroke="null" id="svg_103" stroke-width="1.1703" fill="none" height="5.7249" width="5.7249" y="79.72118" x="188.12417" transform="matrix(1.3209 1.31159 -1.3209 1.31159 -6.20858e-9 3.26102e-8)"/>
    <rect stroke="null" id="svg_104" stroke-width="1.1703" fill="none" height="5.7249" width="5.7249" y="102.73118" x="211.12417" transform="matrix(1.3209 1.31159 -1.3209 1.31159 -6.20858e-9 3.26102e-8)"/>
    <path stroke="null" id="svg_105" stroke-width="2.3407" fill="none" d="m392.58368,409.03297l-131.18004,0"/>
    <path stroke="null" id="svg_106" stroke-width="2.3407" fill="none" d="m274.97296,323.96925l0,85.06929"/>
    <path stroke="null" id="svg_107" stroke-width="2.3407" fill="none" d="m379.48884,326.13943l-104.52895,0"/>
    <path stroke="null" id="svg_108" stroke-width="2.3407" fill="none" d="m379.48884,323.96925l0,85.06929"/>
    <path stroke="null" id="svg_109" stroke-width="1.1703" fill="none" d="m327.24024,328.30961l0,80.72707"/>
    <path stroke="null" id="svg_110" stroke-width="1.1703" fill="none" d="m379.48884,366.50111l-104.52895,0"/>
    <path stroke="null" id="svg_111" stroke-width="4.6813" fill="none" d="m206.54728,0.74194l-74.23896,0"/>
    <path stroke="null" id="svg_112" stroke-width="2.3407" fill="none" d="m122.29945,291.88023l0,-80.319l50.8289,0l0,80.319"/>
    <path stroke="null" id="svg_113" stroke-width="2.3407" fill="none" d="m111.50228,291.88023l72.41764,0"/>
    <path stroke="null" id="svg_114" stroke-width="1.1703px" fill="none" d="m122.29945,252.53872l50.8289,0"/>
    <path stroke="null" id="svg_115" stroke-width="2.3407" fill="none" d="m327.24024,291.88023l0,-80.319l50.8289,0l0,80.319"/>
    <path stroke="null" id="svg_116" stroke-width="2.3407" fill="none" d="m316.44307,291.88023l72.41764,0"/>
    <path stroke="null" id="svg_117" stroke-width="1.1703px" fill="none" d="m327.24024,252.53872l50.8289,0"/>
    <path stroke="null" id="svg_118" stroke-width="2.3407" fill="none" d="m250.1843,484.35869l0,-61.15277"/>
    <path stroke="null" id="svg_119" stroke-width="2.3407" fill="none" d="m344.42605,484.35869l0,-61.15277"/>
    <path stroke="null" id="svg_120" stroke-width="2.3407" fill="none" d="m239.94753,454.82938l114.71715,0"/>
    <path stroke="null" id="svg_121" stroke-width="2.3407" fill="none" d="m250.1843,428.76864l94.23428,0"/>
    <path stroke="null" id="svg_122" stroke-width="2.3407" fill="none" d="m250.1843,437.44937l94.23428,0"/>
    <path stroke="null" id="svg_123" stroke-width="2.3407" fill="none" d="m250.1843,446.14865l94.23428,0"/>
    <path stroke="null" id="svg_124" stroke-width="2.3407" fill="none" d="m243.92642,484.35869l0,-29.10826"/>
    <path stroke="null" id="svg_125" stroke-width="2.3407" fill="none" d="m350.68393,484.35869l0,-29.21399"/>
    <path stroke="null" id="svg_126" stroke-width="2.3407" fill="none" d="m108.23324,449.63578l0,34.73219"/>
    <path stroke="null" id="svg_127" stroke-width="2.3407" fill="none" d="m178.11598,449.63578l0,34.73219"/>
    <path stroke="null" id="svg_128" stroke-width="4.6813" fill="none" d="m58.43175,190.40103l383.50509,0"/>
    <path stroke="null" id="svg_129" stroke-width="2.0712" fill="none" d="m54.17266,497.1943l392.00459,0"/>
    <g stroke="null" id="svg_130" transform="matrix(-1.86802 0 0 1.85486 671.666 3.26102e-8)">
     <circle stroke="null" id="svg_131" r="1.1703" cy="209.7" cx="297.61"/>
     <path stroke="null" id="svg_132" stroke-width="1.17" fill="none" d="m297.54,209.7l-4.6292,0"/>
    </g>
   </g>
  </g>
 </g>
</svg>